# xmcd
#
# Track frame offsets:
#	150
#	20990
#	41962
#	64057
#	84172
#	102440
#	127500
#	148942
#	175950
#	196897
#	216787
#	230250
#
# Disc length: 3294
#
# Revision: 3
# Processed by: cddbd v1.5.1PL0 Copyright (c) Steve Scherf et al.
# Submitted via: EasyCDDAExtractor 5.0.6
# Normalized: r2:DSETVAR1
#
DISCID=a70cdc0c
DTITLE=Various Artist - Destiny Love    Disc 2
DYEAR=2001
DGENRE=Slow Jam
TTITLE0=R. Kelly - Your Body's Callin
TTITLE1=Jonathan Butler - Lies
TTITLE2=Troop - All I Do Is Think Of You
TTITLE3=Clark Anderson - Give Me Something Real
TTITLE4=Smokey Robinson - Daylight And Darkness
TTITLE5=Commodores - Sail On
TTITLE6=Gap Band - I Found My Baby
TTITLE7=Glenn Jones - We've Only Just Begun
TTITLE8=Ready For The World - Can He Do It Like This
TTITLE9=Michael Henderson - Take Me I'm Your's
TTITLE10=Stylistics - Let's Put It All Together
TTITLE11=Neville Brothers - Ten Commandments Of Love
EXTD=YEAR: 2001  ID3G: 111
EXTT0=
EXTT1=
EXTT2=
EXTT3=
EXTT4=
EXTT5=
EXTT6=
EXTT7=
EXTT8=
EXTT9=
EXTT10=
EXTT11=
PLAYORDER=
